<?xml version="1.0" encoding="UTF-8"?>
<!DOCTYPE svg PUBLIC "-//W3C//DTD SVG 1.1//EN" "http://www.w3.org/Graphics/SVG/1.1/DTD/svg11.dtd">
<!-- Creator: CorelDRAW (Versión de evaluación) -->
<svg xmlns="http://www.w3.org/2000/svg" xml:space="preserve" width="1000px" height="267px" version="1.1" style="shape-rendering:geometricPrecision; text-rendering:geometricPrecision; image-rendering:optimizeQuality; fill-rule:evenodd; clip-rule:evenodd"
viewBox="0 0 1000 267"
 xmlns:xlink="http://www.w3.org/1999/xlink"
 xmlns:xodm="http://www.corel.com/coreldraw/odm/2003">
 <defs>
  <style type="text/css">
   <![CDATA[
    .fil0 {fill:#2ACAEA}
    .fil1 {fill:#4cffc3}
   ]]>
  </style>
 </defs>
 <g id="Capa_x0020_1">
  <metadata id="CorelCorpID_0Corel-Layer"/>
  <rect class="fil0" y="0.53" width="1000" height="266.93"/>
  <path class="fil1" d="M847.06 118.05l-40.09 84.25 25.54 0 22.04 0c5.63,-0.62 11.27,-1.24 16.65,-2.41 5.39,-1.18 10.54,-2.91 16.28,-7.19 5.74,-4.28 12.08,-11.1 16.28,-19.96 4.19,-8.85 6.25,-19.74 5.14,-28.25 -1.11,-8.5 -5.39,-14.62 -9.69,-18.63 -4.31,-4.01 -8.64,-5.91 -13.08,-6.86 -4.44,-0.95 -8.98,-0.95 -13.53,-0.95l-25.54 0zm25.47 58.18c-5.14,5.04 -11.97,7.48 -17.57,8.56 -5.61,1.08 -9.99,0.81 -14.38,0.54l22.32 -46.91c3.66,-0.39 7.33,-0.79 10.75,0.18 3.43,0.97 6.63,3.3 8.41,6.41 1.79,3.11 2.17,7.01 0.63,12.78 -1.55,5.77 -5.01,13.41 -10.16,18.44z"/>
  <path class="fil1" d="M762.65 118.05l-44.05 84.25 25.83 0 14.9 -28.49 13.5 28.49 26.47 0 -12.79 -26.99c5.39,-1.36 10.78,-2.73 15.23,-4.97 4.44,-2.24 7.94,-5.37 10.59,-8.64 2.64,-3.27 4.43,-6.68 5.29,-11.54 0.85,-4.85 0.77,-11.14 -0.42,-15.87 -1.18,-4.73 -3.48,-7.89 -5.98,-10.34 -2.49,-2.45 -5.2,-4.17 -8.43,-5.04 -3.23,-0.86 -6.98,-0.86 -10.73,-0.86l-3.58 0 -25.83 0zm22.89 39.13c-2.93,0.79 -6.77,0.79 -9.89,0.76 -3.12,-0.03 -5.53,-0.09 -7.94,-0.16l10.58 -20.25c4.55,-0.18 9.1,-0.36 12.21,0.83 3.1,1.2 4.77,3.78 4.88,6.49 0.1,2.71 -1.36,5.54 -3.11,7.75 -1.75,2.21 -3.79,3.79 -6.73,4.58z"/>
  <polygon class="fil1" points="718.86,118.05 674.81,202.3 699.09,202.3 743.14,118.05 "/>
  <path class="fil1" d="M675.67 167.2c-0.77,-5.99 -4.09,-10.65 -7.41,-15.31 4.47,-1.67 8.93,-3.34 12.96,-5.97 4.03,-2.63 7.62,-6.22 10.41,-11.57 2.44,-4.69 4.27,-10.74 4.94,-16.3 0.09,-0.78 0.17,-1.55 0.21,-2.3 0.38,-6.15 -0.84,-11.34 -3.17,-14.81 -2.33,-3.48 -5.76,-5.24 -10.38,-6.31 -4.63,-1.07 -10.43,-1.47 -16.23,-1.86l-3.25 0 -31.51 0 -12.66 25.28 -42.21 84.25 31.52 0 23.51 0c7.74,0 15.48,0 22.23,-2.41 6.75,-2.41 12.5,-7.23 16.27,-13.31 3.76,-6.07 5.54,-13.39 4.77,-19.38zm-43.26 -11.86c4.84,0.26 9.68,0.53 13.05,2.37 3.38,1.84 5.28,5.25 5.56,8.84 0.28,3.59 -1.06,7.34 -3.36,10.25 -2.3,2.92 -5.54,4.99 -9.55,6.08 -4.01,1.09 -8.77,1.21 -12.22,1.2 -3.46,0 -5.61,-0.13 -7.75,-0.25l14.27 -28.49zm8.45 -16.87l10.23 -20.42 3.47 -6.93c4.63,0.27 9.26,0.54 12.38,2.27 1.95,1.08 3.32,2.72 4.06,4.66 0.44,1.17 0.66,2.44 0.64,3.76 -0.06,3.51 -1.79,7.32 -4.12,10.4 -2.32,3.08 -5.24,5.43 -9.78,6.35 -4.54,0.93 -10.71,0.42 -16.88,-0.09z"/>
  <path class="fil1" d="M487.17 156.99c-0.41,1.65 -2.28,2.28 -4.52,1.69 -2.23,-0.59 -4.85,-2.41 -7.44,-3.22 -2.59,-0.81 -5.17,-0.62 -7.74,-0.43 1.79,2.79 3.59,5.59 3.35,6.97 -0.23,1.37 -2.5,1.34 -4.58,0.53 -2.08,-0.81 -3.96,-2.4 -6.06,-2.98 -2.11,-0.57 -4.44,-0.14 -6.77,0.29 2.63,2.29 5.26,4.57 4.82,5.71 -0.44,1.15 -3.94,1.15 -7.14,0.51 -3.2,-0.64 -6.1,-1.91 -9.37,-2.73 -3.28,-0.83 -6.94,-1.22 -10.61,-1.6 6.02,4.92 12.03,9.84 20.22,15.74 8.18,5.9 18.55,12.79 25.9,17.16 7.34,4.38 11.68,6.24 15.44,6.77 3.77,0.53 6.96,-0.27 10.18,-2.14 3.21,-1.87 6.43,-4.8 9.96,-9.21 3.52,-4.42 7.34,-10.33 11.51,-15.32 4.16,-4.99 8.67,-9.06 13.45,-10.15 4.78,-1.09 9.82,0.79 14.98,3.56 5.16,2.76 10.42,6.41 14.09,7.64 3.67,1.23 5.76,0.06 7.84,-1.12 -1.85,-1.41 -3.69,-2.82 -4.45,-4.79 -0.75,-1.98 -0.43,-4.51 -1.05,-7.05 -0.62,-2.54 -2.19,-5.08 -5.23,-6.69 -3.04,-1.61 -7.55,-2.28 -10.88,-3.47 -3.34,-1.18 -5.5,-2.87 -6.55,-5.39 -1.05,-2.51 -0.99,-5.84 0.31,-9.23 1.31,-3.39 3.85,-6.85 6.33,-9.91 2.48,-3.06 4.89,-5.73 7.01,-8.79 2.11,-3.06 3.92,-6.51 4.92,-9.7 1,-3.18 1.2,-6.09 0.79,-8.58 -0.4,-2.49 -1.41,-4.55 -4.4,-7.95 -3,-3.4 -7.98,-8.13 -12.92,-13.14 -4.95,-5.01 -9.85,-10.31 -13.95,-14.83 -4.1,-4.52 -7.39,-8.26 -10.68,-12.01 0.98,3.71 1.97,7.41 3.13,10.46 1.17,3.05 2.51,5.44 3.08,7.19 0.56,1.74 0.36,2.83 -0.75,3.48 -1.1,0.65 -3.1,0.86 -5.1,1.07 1.99,3.14 3.98,6.27 4.94,8.53 0.96,2.25 0.9,3.62 -0.2,4.63 -1.1,1 -3.23,1.64 -5.36,2.27 2.26,3.57 4.52,7.14 5.22,9.66 0.7,2.53 -0.16,4.02 -1.81,3.81 -1.65,-0.22 -4.09,-2.13 -6.53,-4.05 0.09,2.1 0.18,4.19 1.14,5.82 0.97,1.64 2.82,2.8 3.47,5.08 0.65,2.27 0.11,5.65 -0.62,8 -0.73,2.35 -1.65,3.68 -3.4,4.13 -1.75,0.45 -4.31,0.02 -8.78,-2.6 -4.47,-2.62 -10.83,-7.42 -15.93,-11.79 -5.1,-4.38 -8.94,-8.32 -13.85,-14.89 -4.91,-6.57 -13.97,-19.08 -19.95,-28.28 1.03,4.32 3.75,10.88 3.84,14.07 0.08,3.19 -0.09,5.79 -1.5,8.33 -1.41,2.55 -4.06,5.05 -7.2,6.36 -3.13,1.31 -6.77,1.44 -11.77,1.25 -4.99,-0.19 -11.35,-0.7 -17.71,-1.21 14,5.81 28,11.61 39.37,18.12 11.37,6.5 20.12,13.71 26.19,19.38 6.07,5.67 9.47,9.8 12.88,13.93 -2.37,2.31 -4.74,4.61 -8.28,5.3 -3.53,0.7 -8.24,-0.23 -12.94,-1.15 1.04,2.66 2.07,5.32 1.66,6.96z"/>
  <polygon class="fil1" points="368.71,159.27 374.01,200.85 374.2,202.3 399.57,202.3 442.78,118.05 416.48,118.05 394.35,161.21 389.05,119.63 388.84,118.05 364.67,118.05 321.46,202.3 346.65,202.3 "/>
  <polygon class="fil1" points="318.28,118.05 277.72,202.3 303.76,202.3 344.32,118.05 "/>
  <path class="fil1" d="M253.3 148.5l-0.45 23.42 -17.53 0 17.98 -23.42zm-3.36 -30.45l-64.67 84.25 26.74 0 7.79 -10.15 26.52 0 0 10.15 24.33 0 14.7 -84.25 -35.41 0z"/>
  <path class="fil1" d="M197.14 150.44c5.93,-4.75 10.15,-11.11 12.32,-17.99 1.51,-4.8 2.01,-9.84 1.67,-14.4 -0.15,-1.97 -0.46,-3.84 -0.91,-5.57 -1.51,-5.72 -4.61,-9.78 -8.15,-12.79 -3.54,-3.01 -7.51,-4.96 -11.74,-5.94 -4.23,-0.98 -8.72,-0.98 -13.2,-0.98l-35.25 0 -54.77 109.53 31.5 0 19.67 -39.32 11.4 39.32 26.04 0 -11.63 -40.1c3.94,-0.24 7.89,-0.49 13.68,-2.18 5.79,-1.7 13.43,-4.83 19.37,-9.58zm-48.16 -8.88l14.5 -28.99c4,0.08 7.99,0.16 11.29,0.85 3.3,0.69 5.91,1.98 7.01,5.12 1.11,3.15 0.71,8.15 -1.08,12.38 -1.8,4.23 -4.98,7.68 -10.5,9.32 -5.52,1.65 -13.37,1.49 -21.22,1.32z"/>
 </g>
</svg>
